<svg width="19" height="18" viewBox="0 0 19 18" fill="none" xmlns="http://www.w3.org/2000/svg">
<path d="M16.6891 2.82611C16.2738 2.40569 15.7806 2.07219 15.2377 1.84465C14.6949 1.61711 14.1131 1.5 13.5255 1.5C12.9379 1.5 12.3561 1.61711 11.8133 1.84465C11.2704 2.07219 10.7772 2.40569 10.3619 2.82611L9.49978 3.69821L8.63771 2.82611C7.79866 1.9773 6.66066 1.50044 5.47407 1.50044C4.28747 1.50044 3.14947 1.9773 2.31042 2.82611C1.47137 3.67492 1 4.82616 1 6.02656C1 7.22696 1.47137 8.37819 2.31042 9.227L3.1725 10.0991L9.49978 16.5L15.8271 10.0991L16.6891 9.227C17.1047 8.80679 17.4344 8.30785 17.6593 7.75871C17.8842 7.20957 18 6.62097 18 6.02656C18 5.43214 17.8842 4.84355 17.6593 4.2944C17.4344 3.74526 17.1047 3.24633 16.6891 2.82611V2.82611Z" stroke="#F0515D" stroke-width="1.2" stroke-linecap="round" stroke-linejoin="round"/>
</svg>
