<svg width="17" height="16" viewBox="0 0 17 16" fill="none" xmlns="http://www.w3.org/2000/svg">
<path d="M6.33335 15C6.70154 15 7.00002 14.7015 7.00002 14.3334C7.00002 13.9652 6.70154 13.6667 6.33335 13.6667C5.96516 13.6667 5.66669 13.9652 5.66669 14.3334C5.66669 14.7015 5.96516 15 6.33335 15Z" stroke="#F0515D" stroke-linecap="round" stroke-linejoin="round"/>
<path d="M13.6667 15C14.0349 15 14.3333 14.7015 14.3333 14.3334C14.3333 13.9652 14.0349 13.6667 13.6667 13.6667C13.2985 13.6667 13 13.9652 13 14.3334C13 14.7015 13.2985 15 13.6667 15Z" stroke="#F0515D" stroke-linecap="round" stroke-linejoin="round"/>
<path d="M1 1H3.66667L5.45333 9.92667C5.5143 10.2336 5.68127 10.5093 5.92503 10.7055C6.16879 10.9018 6.4738 11.006 6.78667 11H13.2667C13.5795 11.006 13.8845 10.9018 14.1283 10.7055C14.3721 10.5093 14.539 10.2336 14.6 9.92667L15.6667 4.33333H4.33333" stroke="#F0515D" stroke-linecap="round" stroke-linejoin="round"/>
</svg>
