<svg width="16" height="16" viewBox="0 0 16 16" fill="none" xmlns="http://www.w3.org/2000/svg">
<path d="M15 8C15 4.13401 11.866 1 8 1C4.13401 1 1 4.13401 1 8C1 11.866 4.13401 15 8 15" stroke="#F0515D" stroke-width="0.8" stroke-linecap="round" stroke-linejoin="round"/>
<path d="M5.59766 8.71387C5.41536 8.71387 5.25911 8.7041 5.12891 8.68457C4.9987 8.66504 4.86686 8.63086 4.7334 8.58203C4.60319 8.52995 4.47624 8.45833 4.35254 8.36719C4.22884 8.27604 4.11979 8.15723 4.02539 8.01074C3.81706 7.68848 3.71289 7.26855 3.71289 6.75098C3.71289 5.7972 4.05957 5.17708 4.75293 4.89062C4.9873 4.79297 5.19889 4.74414 5.3877 4.74414C5.5765 4.74414 5.736 4.75391 5.86621 4.77344C5.99967 4.78971 6.13151 4.82389 6.26172 4.87598C6.39518 4.9248 6.52376 4.99479 6.64746 5.08594C6.77116 5.17708 6.88184 5.29753 6.97949 5.44727C7.18783 5.76953 7.29199 6.2041 7.29199 6.75098C7.29199 7.65592 6.94368 8.25651 6.24707 8.55273C5.99967 8.66016 5.7832 8.71387 5.59766 8.71387ZM6.32031 6.75098C6.32031 5.84928 6.04688 5.39844 5.5 5.39844C4.95638 5.39844 4.68457 5.84928 4.68457 6.75098C4.68457 7.42155 4.84733 7.83659 5.17285 7.99609C5.27376 8.04492 5.38281 8.06934 5.5 8.06934C5.62044 8.06934 5.72949 8.04492 5.82715 7.99609C5.92806 7.94727 6.01595 7.86914 6.09082 7.76172C6.24382 7.54036 6.32031 7.20345 6.32031 6.75098ZM8.78613 10.9307C8.73079 10.7256 8.70312 10.4831 8.70312 10.2031C8.70312 9.91992 8.73242 9.67415 8.79102 9.46582C8.84961 9.25749 8.92773 9.08008 9.02539 8.93359C9.12305 8.78385 9.23372 8.66178 9.35742 8.56738C9.48438 8.46973 9.61296 8.39323 9.74316 8.33789C9.97754 8.24023 10.1891 8.19141 10.3779 8.19141C10.57 8.19141 10.7311 8.20117 10.8613 8.2207C10.9948 8.23698 11.1266 8.27116 11.2568 8.32324C11.3903 8.37207 11.5173 8.44206 11.6377 8.5332C11.7614 8.62435 11.8721 8.74479 11.9697 8.89453C12.1781 9.22331 12.2822 9.65788 12.2822 10.1982C12.2822 11.1064 11.9355 11.707 11.2422 12C10.9948 12.1074 10.7409 12.1611 10.4805 12.1611C9.57878 12.1611 9.014 11.751 8.78613 10.9307ZM11.3154 10.1982C11.3154 9.29655 11.042 8.8457 10.4951 8.8457C9.94824 8.8457 9.6748 9.29655 9.6748 10.1982C9.6748 10.8688 9.83919 11.2839 10.168 11.4434C10.2689 11.4922 10.3779 11.5166 10.4951 11.5166C10.6156 11.5166 10.7246 11.4922 10.8223 11.4434C10.9232 11.3945 11.0094 11.3164 11.0811 11.209C11.2373 10.9876 11.3154 10.6507 11.3154 10.1982ZM9.75781 4.92969C9.91406 4.91341 10.0508 4.94922 10.168 5.03711C10.3861 5.19987 10.4593 5.33659 10.3877 5.44727L6.16895 11.9854C5.99316 11.9788 5.85156 11.9333 5.74414 11.8486C5.54232 11.6989 5.47233 11.5719 5.53418 11.4678L9.75781 4.92969Z" fill="#F0515D"/>
</svg>
