<svg width="11" height="9" viewBox="0 0 11 9" fill="none" xmlns="http://www.w3.org/2000/svg">
<path d="M10.1518 0.795665C9.88302 0.543416 9.56389 0.343314 9.21265 0.206791C8.86141 0.0702686 8.48493 0 8.10473 0C7.72453 0 7.34806 0.0702686 6.99682 0.206791C6.64558 0.343314 6.32645 0.543416 6.05767 0.795665L5.49986 1.31893L4.94205 0.795665C4.39913 0.286378 3.66278 0.000263981 2.89498 0.000263986C2.12719 0.000263992 1.39084 0.286378 0.847921 0.795665C0.305006 1.30495 5.72054e-09 1.99569 0 2.71593C-5.72054e-09 3.43617 0.305006 4.12692 0.847921 4.6362L1.40573 5.15946L5.49986 9L9.59399 5.15946L10.1518 4.6362C10.4207 4.38407 10.634 4.08471 10.7796 3.75523C10.9251 3.42574 11 3.07258 11 2.71593C11 2.35928 10.9251 2.00613 10.7796 1.67664C10.634 1.34716 10.4207 1.0478 10.1518 0.795665Z" fill="#F0515D"/>
</svg>
