<svg width="17" height="16" viewBox="0 0 17 16" fill="none" xmlns="http://www.w3.org/2000/svg">
<path d="M6.68182 14.9998C7.05838 14.9998 7.36364 14.7014 7.36364 14.3332C7.36364 13.965 7.05838 13.6665 6.68182 13.6665C6.30526 13.6665 6 13.965 6 14.3332C6 14.7014 6.30526 14.9998 6.68182 14.9998Z" stroke="#D3D3D3" stroke-linecap="round" stroke-linejoin="round"/>
<path d="M13.9548 14.9998C14.3313 14.9998 14.6366 14.7014 14.6366 14.3332C14.6366 13.965 14.3313 13.6665 13.9548 13.6665C13.5782 13.6665 13.2729 13.965 13.2729 14.3332C13.2729 14.7014 13.5782 14.9998 13.9548 14.9998Z" stroke="#D3D3D3" stroke-linecap="round" stroke-linejoin="round"/>
<path d="M1 1H3.72727L5.55455 9.92667C5.61689 10.2336 5.78766 10.5093 6.03696 10.7055C6.28626 10.9018 6.5982 11.006 6.91818 11H13.5455C13.8654 11.006 14.1774 10.9018 14.4267 10.7055C14.676 10.5093 14.8467 10.2336 14.9091 9.92667L16 4.33333H4.40909" stroke="#D3D3D3" stroke-width="1.5" stroke-linecap="round" stroke-linejoin="round"/>
</svg>
