<svg width="31" height="36" viewBox="0 0 31 36" fill="none" xmlns="http://www.w3.org/2000/svg">
<path d="M25.0311 27.7335C22.1867 30.4832 18.7733 31.8579 14.7911 31.8579C10.714 31.8579 7.22965 30.4119 4.33767 27.5202C1.44599 24.6283 0 21.1439 0 17.0668V2.27563C0 1.64985 0.222951 1.11416 0.668548 0.668566C1.11414 0.222969 1.64983 1.90735e-05 2.27561 1.90735e-05C2.90138 1.90735e-05 3.43707 0.222969 3.88267 0.668566C4.32826 1.11416 4.55121 1.64985 4.55121 2.27563V17.0668C4.55121 19.8923 5.5513 22.3053 7.55209 24.3058C9.55257 26.3066 11.9656 27.3067 14.7911 27.3067C17.6167 27.3067 20.0297 26.3066 22.0302 24.3058C24.031 22.3053 25.0311 19.8923 25.0311 17.0668" fill="#F0515D"/>
<path d="M5.06494 7.77533C7.9093 5.02561 11.3227 3.6509 15.3049 3.6509C19.382 3.6509 22.8664 5.09689 25.7583 7.98856C28.65 10.8805 30.096 14.3649 30.096 18.442V33.2332C30.096 33.859 29.8731 34.3946 29.4275 34.8402C28.9819 35.2858 28.4462 35.5088 27.8204 35.5088C27.1946 35.5088 26.6589 35.2858 26.2133 34.8402C25.7677 34.3946 25.5448 33.859 25.5448 33.2332V18.442C25.5448 15.6165 24.5447 13.2035 22.5439 11.203C20.5434 9.20221 18.1304 8.20211 15.3049 8.20211C12.4793 8.20211 10.0663 9.20221 8.06582 11.203C6.06503 13.2035 5.06494 15.6165 5.06494 18.442" fill="#F0515D"/>
</svg>
